<svg width="35" height="34" viewBox="0 0 35 34" fill="none" xmlns="http://www.w3.org/2000/svg">
<rect width="35" height="34" fill="#1E1E1E"/>
<path d="M7.7 2.72C4.9938 2.72 2.8 4.85112 2.8 7.48V26.52C2.8 29.1489 4.9938 31.28 7.7 31.28H27.3C30.0062 31.28 32.2 29.1489 32.2 26.52V7.48C32.2 4.85112 30.0062 2.72 27.3 2.72H7.7ZM9.16016 8.84H14.7164L18.6621 14.2866L23.45 8.84H25.2L19.4523 15.377L26.5398 25.16H20.985L16.4062 18.8408L10.85 25.16H9.1L15.616 17.7504L9.16016 8.84ZM11.8398 10.2L21.715 23.8H23.8602L13.985 10.2H11.8398Z" fill="#D4D4D4"/>
</svg>
