<svg width="100" height="100" viewBox="0 0 100 100" fill="none" xmlns="http://www.w3.org/2000/svg">
<rect width="100" height="100" fill="#1E1E1E"/>
<g clip-path="url(#clip0_0_1)">
<mask id="mask0_0_1" style="mask-type:luminance" maskUnits="userSpaceOnUse" x="-17" y="0" width="108" height="100">
<path d="M-16.2791 4.00543e-05H90.6977V100H-16.2791L-16.2791 4.00543e-05Z" fill="white"/>
</mask>
<g mask="url(#mask0_0_1)">
<path d="M37.4545 96.85C36.7733 97.7368 35.6753 97.7368 34.9941 96.85L0.510955 51.7579C-0.170318 50.8684 -0.170318 49.4263 0.510955 48.5369L34.9941 3.4448C35.6753 2.55533 36.7733 2.55533 37.4545 3.4448L71.9405 48.5369C72.6189 49.4263 72.6189 50.8684 71.9405 51.7579L37.4545 96.85Z" fill="#30819A"/>
<path d="M37.4545 96.85C36.7733 97.7368 35.6753 97.7368 34.9941 96.85L0.510955 51.7579C-0.170318 50.8684 -0.170318 49.4263 0.510955 48.5369L34.9941 3.4448C35.6753 2.55533 36.7733 2.55533 37.4545 3.4448L71.9405 48.5369C72.6189 49.4263 72.6189 50.8684 71.9405 51.7579L37.4545 96.85Z" fill="#30819A"/>
</g>
<mask id="mask1_0_1" style="mask-type:luminance" maskUnits="userSpaceOnUse" x="0" y="0" width="107" height="100">
<path d="M0 4.00543e-05H106.977V100H0L0 4.00543e-05Z" fill="white"/>
</mask>
<g mask="url(#mask1_0_1)">
<path d="M53.7336 96.85C53.0523 97.7368 51.9544 97.7368 51.2732 96.85L16.79 51.7579C16.1088 50.8684 16.1088 49.4263 16.79 48.5369L51.2732 3.4448C51.9544 2.55533 53.0523 2.55533 53.7336 3.4448L88.2196 48.5369C88.898 49.4263 88.898 50.8684 88.2196 51.7579L53.7336 96.85Z" fill="#30819A" fill-opacity="0.5"/>
<path d="M53.7336 96.85C53.0523 97.7368 51.9544 97.7368 51.2732 96.85L16.79 51.7579C16.1088 50.8684 16.1088 49.4263 16.79 48.5369L51.2732 3.4448C51.9544 2.55533 53.0523 2.55533 53.7336 3.4448L88.2196 48.5369C88.898 49.4263 88.898 50.8684 88.2196 51.7579L53.7336 96.85Z" fill="#30819A" fill-opacity="0.5"/>
</g>
</g>
<defs>
<clipPath id="clip0_0_1">
<rect width="100" height="100" fill="white"/>
</clipPath>
</defs>
</svg>
